<?xml version="1.0" encoding="utf-8"?>
<!-- Svg Vector Icons : http://www.onlinewebfonts.com/icon -->
<!DOCTYPE svg PUBLIC "-//W3C//DTD SVG 1.1//EN" "http://www.w3.org/Graphics/SVG/1.1/DTD/svg11.dtd">
<svg version="1.1" xmlns="http://www.w3.org/2000/svg" xmlns:xlink="http://www.w3.org/1999/xlink" x="0px" y="0px" viewBox="0 0 1000 1000" enable-background="new 0 0 1000 1000" xml:space="preserve">
<metadata> Svg Vector Icons : http://www.onlinewebfonts.com/icon </metadata>
<g><path d="M500,10C229.4,10,10,229.4,10,500c0,270.6,219.4,490,490,490c270.6,0,490-219.4,490-490C990,229.4,770.6,10,500,10z M706.9,798.8c-61.3,43.5-132.8,66.2-206.2,66.2c-12,0-24-0.8-36-2c-2.4-0.3-4.8-0.7-7.2-1c-6.7-0.8-13.4-1.5-20.1-2.7c-2-0.3-3.8-0.9-5.8-1.3c-4.8-0.9-9.5-2.1-14.2-3.2c-7.1-1.7-14.1-3.4-21-5.5c-3.8-1.2-7.4-2.5-11.2-3.7c-7.9-2.7-15.7-5.5-23.3-8.7c-2.3-1-4.4-2-6.6-3c-8.9-4-17.7-8.2-26.3-12.8c-0.8-0.4-1.6-0.9-2.3-1.4c-29.7-16.5-56.9-37.1-81.1-61.5c-0.7-0.6-1.3-1.4-2-2.1c-7.2-7.4-14.2-15-20.7-23.1c-1.7-2.1-3.3-4.3-4.9-6.5c-4.5-5.7-9.1-11.2-13.3-17.3c-0.5-0.8-0.9-1.7-1.4-2.5c-40.2-58.9-63.8-130.1-63.8-206.9H75.9c-1.6,0-3.2-0.9-4.1-2.4c-0.8-1.5-0.7-3.3,0.2-4.7l106.8-162.2c0.8-1.3,2.3-2.1,3.9-2.1c1.6,0,3,0.8,3.9,2.1l106.8,162.2c0.9,1.4,1,3.2,0.2,4.7c-0.8,1.5-2.4,2.4-4.1,2.4H226c0,65.3,22.6,125.4,60.1,172.8c1.1,1.4,2.1,2.8,3.2,4.2c5.2,6.3,10.6,12.4,16.4,18.2c0.3,0.3,0.6,0.7,0.9,1c18.4,18.6,39.4,34.5,62.3,47.3c0.3,0.2,0.6,0.3,0.9,0.5c6.8,3.7,13.8,7,20.9,10.2c1.3,0.6,2.7,1.3,4.1,1.8c6.1,2.6,12.3,4.8,18.5,6.9c2.6,0.9,5.2,1.8,7.7,2.6c5.4,1.6,11,3,16.5,4.3c3.4,0.8,6.9,1.7,10.4,2.4c5.7,1.1,11.5,1.9,17.3,2.7c3.1,0.4,6.1,0.9,9.1,1.2c7.4,0.6,14.9,1,22.4,1.1c57,0.8,112.8-16.2,160.4-50c19.6-13.9,46.6-9.1,60.3,10.7C731.2,757.7,726.4,784.9,706.9,798.8z M821.2,669.2c-0.8,1.3-2.3,2.1-3.9,2.1c-1.6,0-3.1-0.8-3.9-2.1L706.6,507c-0.9-1.4-1-3.2-0.2-4.7c0.8-1.5,2.4-2.4,4.1-2.4H774c0-66.6-23.4-127.8-62.3-175.7c-0.2-0.2-0.3-0.5-0.5-0.7c-27.6-33.8-63-60.9-103.3-78.4c-0.7-0.3-1.4-0.6-2-0.9c-6.7-2.8-13.6-5.3-20.6-7.6c-1.9-0.6-3.8-1.3-5.7-2c-6.1-1.9-12.3-3.4-18.6-4.8c-2.7-0.6-5.5-1.4-8.3-1.9c-6.4-1.3-12.8-2.2-19.3-3c-2.4-0.3-4.8-0.7-7.3-1c-7.9-0.8-15.9-1.2-24.1-1.2c-56.6-0.5-111.8,16.5-159.1,50c-19.5,13.9-46.6,9.1-60.3-10.7c-13.7-19.8-8.9-47.1,10.7-61c61.3-43.5,132.6-65.8,205.8-65.9c0.3,0,0.6-0.1,0.9-0.1c1.7,0,3.4,0.3,5.2,0.3c9.5,0.2,19,0.5,28.6,1.4c4,0.4,7.9,1,11.8,1.5c5.7,0.7,11.4,1.2,17.1,2.2c2.1,0.4,4.1,1,6.2,1.4c4.3,0.8,8.5,1.9,12.7,2.9c7.6,1.8,15.2,3.6,22.7,5.9c3.1,0.9,6.2,2.1,9.3,3.1c8.5,2.9,17,6,25.4,9.4c1.4,0.6,2.8,1.3,4.3,2c52.1,22.7,98,57.4,134.6,102.4c0.7,0.8,1.3,1.7,1.9,2.5c5.4,6.7,10.8,13.4,15.8,20.6c0.6,0.9,1,1.9,1.6,3c40,58.7,63.5,129.8,63.5,206.4v0h63.5c1.6,0,3.2,0.9,4.1,2.4c0.8,1.5,0.7,3.3-0.2,4.7L821.2,669.2z"/></g>
</svg>